<svg xmlns="http://www.w3.org/2000/svg" id="Layer_1" data-name="Layer 1" viewBox="2.02 9.12 91.98 77.76">
    <defs>
        <style>.cls-1{fill:#fff;}</style>
    </defs>
    <path class="cls-1" d="M49.37,44.89a1.12,1.12,0,0,1-.31,0L6.11,30.91A1,1,0,0,1,6,29.07L44,9.24a1,1,0,0,1,.78-.07L83.93,22a1,1,0,0,1,.21,1.8L49.89,44.74A1,1,0,0,1,49.37,44.89ZM9,29.74,49.24,42.79l32-19.53-36.73-12Z"></path>
    <path class="cls-1" d="M48.94,54.27a1,1,0,0,1-.3,0L6.12,40.88a1.14,1.14,0,0,1-.47-.31A9,9,0,0,1,3.58,33.9a8.58,8.58,0,0,1,2.08-4.6,1,1,0,0,1,1.41-.1,1,1,0,0,1,.1,1.42,6.53,6.53,0,0,0-1.6,3.52A6.85,6.85,0,0,0,7,39.06L48.8,52.18,80.64,32.54l-.28-.07a1,1,0,0,1-.74-.95l-.14-6.6a1,1,0,0,1,2,0l.12,5.85,1.79.48a1,1,0,0,1,.73.83,1,1,0,0,1-.46,1L49.46,54.12A1,1,0,0,1,48.94,54.27Z"></path>
    <path class="cls-1" d="M48.94,54.27a1,1,0,0,1-.95-.69,14.45,14.45,0,0,1,.46-10.09,1,1,0,0,1,1.84.79,12.33,12.33,0,0,0-.4,8.68,1,1,0,0,1-.64,1.26A.87.87,0,0,1,48.94,54.27Z"></path>
    <path class="cls-1" d="M16.47,58.11A1.06,1.06,0,0,1,16,58L5.81,52A1,1,0,0,1,6,50.17L10.3,49a1,1,0,0,1,1.23.69,1,1,0,0,1-.68,1.24l-2,.57L17,56.25a1,1,0,0,1-.51,1.86Z"></path>
    <path class="cls-1" d="M48.35,76.86a1,1,0,0,1-.5-.13L32.12,67.47a1,1,0,1,1,1-1.72l15.33,9L87,60.85a1,1,0,0,1,1.31-1.46l1.44.85a1,1,0,0,1-.18,1.8L48.69,76.8A1,1,0,0,1,48.35,76.86Z"></path>
    <path class="cls-1" d="M45.73,86.88a1,1,0,0,1-.5-.14l-41.72-24a1.1,1.1,0,0,1-.39-.41,9.91,9.91,0,0,1-.63-7.56,9.44,9.44,0,0,1,3.22-4.43,1,1,0,0,1,1.4.19,1,1,0,0,1-.19,1.4,7.43,7.43,0,0,0-2.54,3.49,7.74,7.74,0,0,0,.39,5.73L45.82,84.78l38.35-14-.49-.25a1,1,0,0,1-.52-1.08l1.39-7.14a1,1,0,1,1,2,.38l-1.24,6.41,1.83,1A1,1,0,0,1,87,71.83l-40.91,15A1,1,0,0,1,45.73,86.88Z"></path>
    <path class="cls-1" d="M45.73,86.88a1,1,0,0,1-1-.91,16,16,0,0,1,.46-5.6,16.19,16.19,0,0,1,2.34-5.08A1,1,0,0,1,48.92,75a1,1,0,0,1,.25,1.39,14.08,14.08,0,0,0-2.45,9.35,1,1,0,0,1-.9,1.09Z"></path>
    <path class="cls-1" d="M25,68.49a1,1,0,0,1-.77-.36L7,47.13a.9.9,0,0,1-.14-.2A15.57,15.57,0,0,1,5.62,43a15.39,15.39,0,0,1-.2-3.11,1,1,0,0,1,1-1,1,1,0,0,1,1,1,13.42,13.42,0,0,0,.18,2.69,13.12,13.12,0,0,0,1,3.31l16.8,20.48L90.05,59a1,1,0,0,1-.28-.68l-.09-11.22a1,1,0,0,1,1-1h0a1,1,0,0,1,1,1l.09,10.67,1.75,1.06a1,1,0,0,1-.41,1.85l-68,7.84Z"></path>
    <path class="cls-1" d="M51.73,52.55a1,1,0,0,1-.12-2l39.17-4.8L79.32,34.83a1,1,0,0,1,1.38-1.45l13,12.4a1,1,0,0,1,.26,1,1,1,0,0,1-.83.68l-41.27,5Z"></path>
    <path class="cls-1" d="M25,55.82a1,1,0,0,1-.79-.39l-9.29-12a1,1,0,1,1,1.58-1.23l8.94,11.54,20.22-2.48a1,1,0,0,1,.24,2L25.11,55.81Z"></path>
    <path class="cls-1" d="M25,68.49a1,1,0,0,1-1-1V54.82a1,1,0,0,1,2,0V67.49A1,1,0,0,1,25,68.49Z"></path>
</svg>