<svg xmlns:inkscape="http://www.inkscape.org/namespaces/inkscape"
    xmlns:sodipodi="http://sodipodi.sourceforge.net/DTD/sodipodi-0.dtd"
    xmlns="http://www.w3.org/2000/svg"
    xmlns:svg="http://www.w3.org/2000/svg" version="1.1" id="svg2" sodipodi:docname="scouting-mira-ceti-nistelrode-seeklogo.eps" viewBox="26.97 11.66 203.08 234.33">
    <sodipodi:namedview id="namedview4" pagecolor="#ffffff" bordercolor="#000000" borderopacity="0.25" inkscape:showpageshadow="2" inkscape:pageopacity="0.0" inkscape:pagecheckerboard="0" inkscape:deskcolor="#d1d1d1"></sodipodi:namedview>
    <g id="g8" inkscape:groupmode="layer" inkscape:label="ink_ext_XXXXXX" transform="matrix(1.3333333,0,0,-1.3333333,0,257.33333)">
        <g id="g10" transform="scale(0.1)">            <!-- <path d="M 0,1927.56 H 1927.56 V 0 H 0 v 1927.56" style="fill:#ffffff;fill-opacity:1;fill-rule:evenodd;stroke:none" id="path12" /> -->
            <path d="m 963.965,1799.1 c -27.918,0 -61.375,-2.16 -87.375,-4.09 l 27.445,44.29 c 27.918,2.65 62.578,4.09 93.391,2.65 l -33.461,-42.85" style="fill:#ffffff;fill-opacity:1;fill-rule:evenodd;stroke:none" id="path14"></path>
            <path d="m 838.32,1788.75 c -28.644,-4.81 -59.933,-13.72 -83.761,-20.46 l 19.734,49.1 c 23.832,6.74 59.457,14.93 90.746,17.09 l -26.719,-45.73" style="fill:#ffffff;fill-opacity:1;fill-rule:evenodd;stroke:none" id="path16"></path>
            <path d="m 717.004,1757.46 c -26.719,-11.8 -58.008,-24.55 -79.91,-34.9 l 11.07,50.55 c 23.828,10.83 57.289,23.83 85.934,32.73 l -17.094,-48.38" style="fill:#ffffff;fill-opacity:1;fill-rule:evenodd;stroke:none" id="path18"></path>
            <path d="m 603.633,1704.27 c -23.828,-15.17 -52.473,-33.47 -72.938,-48.63 l 1.926,53.2 c 22.633,13.72 53.438,32.73 77.988,46.45 l -6.976,-51.02" style="fill:#ffffff;fill-opacity:1;fill-rule:evenodd;stroke:none" id="path20"></path>
            <path d="m 499.895,1631.09 c -21.668,-17.57 -44.293,-41.64 -61.383,-59.21 l -9.391,49.82 c 20.461,20.94 46.211,45.01 70.774,62.59 v -53.2" style="fill:#ffffff;fill-opacity:1;fill-rule:evenodd;stroke:none" id="path22"></path>
            <path d="m 411.309,1542.51 c -17.813,-21.9 -36.829,-48.62 -50.551,-71.01 l -18.289,51.75 c 18.289,21.91 40.195,48.63 59.933,70.29 l 8.907,-51.03" style="fill:#ffffff;fill-opacity:1;fill-rule:evenodd;stroke:none" id="path24"></path>
            <path d="m 340.305,1439.48 c -14.93,-24.54 -28.653,-55.35 -39.481,-77.75 l -24.547,45.5 c 10.828,24.8 29.368,56.09 44.286,82.56 l 19.742,-50.31" style="fill:#ffffff;fill-opacity:1;fill-rule:evenodd;stroke:none" id="path26"></path>
            <path d="m 287.105,1326.11 c -10.828,-26.47 -19.742,-59.93 -23.828,-84.48 l -33.461,42.12 c 6.743,24.07 17.817,59.45 29.368,86.17 l 27.921,-43.81" style="fill:#ffffff;fill-opacity:1;fill-rule:evenodd;stroke:none" id="path28"></path>
            <path d="m 254.367,1204.07 c -4.086,-28.64 -8.179,-61.37 -8.179,-85.93 l -40.2,35.38 c 1.203,26.73 6.012,62.11 13,90.03 l 35.379,-39.48" style="fill:#ffffff;fill-opacity:1;fill-rule:evenodd;stroke:none" id="path30"></path>
            <path d="m 243.539,1081.08 c 0,-29.13 2.649,-62.59 6.742,-89.31 l -47.183,29.37 c 0,25.99 -1.926,61.38 0,92.19 l 40.441,-32.25" style="fill:#ffffff;fill-opacity:1;fill-rule:evenodd;stroke:none" id="path32"></path>
            <path d="m 254.367,954.227 c 4.817,-29.368 12.996,-59.211 19.738,-83.766 l -48.382,19.738 c -6.735,23.832 -13.723,59.934 -18.532,90.742 l 47.176,-26.714" style="fill:#ffffff;fill-opacity:1;fill-rule:evenodd;stroke:none" id="path34"></path>
            <path d="m 287.105,832.914 c 9.625,-26.723 24.547,-58.012 35.383,-79.191 l -52.476,10.105 c -10.828,24.555 -23.824,58.008 -33.453,86.176 l 50.546,-17.09" style="fill:#ffffff;fill-opacity:1;fill-rule:evenodd;stroke:none" id="path36"></path>
            <path d="m 340.305,720.262 c 13.715,-24.551 34.175,-53.918 49.097,-73.657 l -53.195,2.649 c -15.644,21.898 -35.383,53.199 -49.102,77.023 l 53.2,-6.015" style="fill:#ffffff;fill-opacity:1;fill-rule:evenodd;stroke:none" id="path38"></path>
            <path d="m 411.309,615.074 c 19.734,-20.941 42.363,-43.574 62.101,-61.379 l -53.195,-8.906 c -17.813,20.703 -41.641,46.453 -59.457,70.285 h 50.551" style="fill:#ffffff;fill-opacity:1;fill-rule:evenodd;stroke:none" id="path40"></path>
            <path d="m 502.777,527.215 c 19.016,-17.086 48.383,-37.551 67.399,-51.274 l -48.383,-17.089 c -21.898,17.089 -51.027,37.554 -72.211,57.296 l 53.195,11.067" style="fill:#ffffff;fill-opacity:1;fill-rule:evenodd;stroke:none" id="path42"></path>
            <path d="m 603.633,456.93 c 24.555,-15.649 55.363,-29.367 79.918,-40.196 L 634.445,392.66 c -23.836,11.074 -54.64,28.641 -79.191,44.528 l 48.379,19.742" style="fill:#ffffff;fill-opacity:1;fill-rule:evenodd;stroke:none" id="path44"></path>
            <path d="m 718.93,403.734 c 26.718,-11.074 21.906,-9.629 43.812,-20.464 L 734.82,346.922 c -26.718,6.98 -41.64,17.094 -68.359,28.644 l 52.469,28.168" style="fill:#ffffff;fill-opacity:1;fill-rule:evenodd;stroke:none" id="path46"></path>
            <path d="m 1182.29,385.195 c 26.71,13 84.73,47.184 105.19,53.922 V 379.66 c -33.46,-8.664 -60.91,-25.758 -82.57,-36.824 l -22.62,42.359" style="fill:#ffffff;fill-opacity:1;fill-rule:evenodd;stroke:none" id="path48"></path>
            <path d="m 1325.03,452.117 c 24.54,13.719 51.02,37.547 72.93,51.746 l -4.1,-53.918 c -19.73,-12.757 -44.29,-38.031 -71,-50.304 l 2.17,52.476" style="fill:#ffffff;fill-opacity:1;fill-rule:evenodd;stroke:none" id="path50"></path>
            <path d="m 1426.61,527.215 c 22.38,17.574 46.45,42.363 64.02,62.824 l 7.71,-53.914 c -20.71,-17.094 -47.19,-41.645 -69.09,-61.621 l -2.64,52.711" style="fill:#ffffff;fill-opacity:1;fill-rule:evenodd;stroke:none" id="path52"></path>
            <path d="m 1515.18,615.074 c 17.82,23.352 37.56,51.27 53.2,71.731 l 15.89,-48.379 c -15.89,-23.352 -38.28,-51.27 -58.02,-72.934 l -11.07,49.582" style="fill:#ffffff;fill-opacity:1;fill-rule:evenodd;stroke:none" id="path54"></path>
            <path d="m 1588.36,720.262 c 13,24.551 28.64,54.64 37.55,77.023 l 24.55,-46.211 c -11.07,-24.797 -26.71,-55.363 -45.01,-79.922 l -17.09,49.11" style="fill:#ffffff;fill-opacity:1;fill-rule:evenodd;stroke:none" id="path56"></path>
            <path d="m 1641.55,832.914 c 8.91,26.481 17.09,59.93 23.84,83.766 l 31.29,-41.641 c -6.74,-25.035 -18.29,-59.937 -29.13,-86.656 l -26,44.531" style="fill:#ffffff;fill-opacity:1;fill-rule:evenodd;stroke:none" id="path58"></path>
            <path d="m 1672.12,954.227 c 6.27,28.64 8.91,62.823 11.08,86.653 l 37.55,-36.11 c -2.17,-26.715 -6.26,-61.372 -13,-90.739 l -35.63,40.196" style="fill:#ffffff;fill-opacity:1;fill-rule:evenodd;stroke:none" id="path60"></path>
            <path d="m 1683.2,1081.08 c 0,25.27 -2.17,61.62 -4.81,85.44 l 45.01,-28.64 c 1.92,-26.72 1.92,-61.38 1.92,-90.75 l -42.12,33.95" style="fill:#ffffff;fill-opacity:1;fill-rule:evenodd;stroke:none" id="path62"></path>
            <path d="m 1672.12,1204.07 c -4.57,29.37 -13.48,62.11 -19.73,86.66 l 49.1,-19.74 c 6.26,-27.44 13,-62.1 17.09,-90.74 l -46.46,23.82" style="fill:#ffffff;fill-opacity:1;fill-rule:evenodd;stroke:none" id="path64"></path>
            <path d="m 1641.55,1326.11 c -11.55,26 -24.55,58.02 -36.1,79.2 l 51.03,-10.84 c 11.07,-24.55 24.55,-57.52 33.46,-86.65 l -48.39,18.29" style="fill:#ffffff;fill-opacity:1;fill-rule:evenodd;stroke:none" id="path66"></path>
            <path d="m 1588.36,1439.48 c -15.17,25.76 -35.62,51.76 -49.11,72.22 l 53.2,-1.93 c 13,-22.63 33.46,-50.54 46.94,-77.74 l -51.03,7.45" style="fill:#ffffff;fill-opacity:1;fill-rule:evenodd;stroke:none" id="path68"></path>
            <path d="m 1515.18,1542.51 c -16.84,22.38 -42.12,46.94 -59.93,64.03 l 51.27,6.98 c 19.73,-19.98 43.57,-46.46 61.86,-71.01 h -53.2" style="fill:#ffffff;fill-opacity:1;fill-rule:evenodd;stroke:none" id="path70"></path>
            <path d="m 1426.61,1631.09 c -21.91,17.81 -48.39,37.55 -71.02,50.55 l 50.55,18.53 c 23.11,-15.88 49.11,-37.54 71.49,-57.53 l -51.02,-11.55" style="fill:#ffffff;fill-opacity:1;fill-rule:evenodd;stroke:none" id="path72"></path>
            <path d="m 1322.86,1704.27 c -24.55,13.47 -53.2,26.47 -77.02,37.3 l 45.72,24.56 c 24.56,-10.84 55.13,-28.65 82.57,-43.57 l -51.27,-18.29" style="fill:#ffffff;fill-opacity:1;fill-rule:evenodd;stroke:none" id="path74"></path>
            <path d="m 1210.2,1755.29 c -26.47,10.84 -59.93,19.74 -84.48,26.72 l 41.64,31.29 c 27.2,-7.46 59.94,-18.29 86.66,-29.36 l -43.82,-28.65" style="fill:#ffffff;fill-opacity:1;fill-rule:evenodd;stroke:none" id="path76"></path>
            <path d="m 1088.17,1788.75 c -26.72,4.09 -62.1,8.19 -85.94,10.35 l 34.66,38.03 c 26.73,-2.65 62.11,-6.74 90.75,-13 l -39.47,-35.38" style="fill:#ffffff;fill-opacity:1;fill-rule:evenodd;stroke:none" id="path78"></path>
            <path d="m 1095.63,306.727 -22.39,38.996 c 4.58,1.925 22.39,4.808 22.39,4.808 13,0 53.92,19.742 68.85,24.559 l 17.08,-38.274 c -13,-8.906 -33.45,-17.089 -44.29,-19.011 -8.9,-2.172 -26,-11.078 -41.64,-11.078" style="fill:#ffffff;fill-opacity:1;fill-rule:evenodd;stroke:none" id="path80"></path>
            <path d="m 905.957,359.199 -2.644,44.535 c 22.386,-6.98 30.574,-13 48.382,-26.722 l -32.738,-24.547 c -10.828,6.734 -8.902,6.734 -13,6.734" style="fill:#ffffff;fill-opacity:1;fill-rule:evenodd;stroke:none" id="path82"></path>
            <path d="m 1052.07,343.555 17.09,-36.828 c -15.89,-1.922 -57.54,0 -73.183,8.906 l 29.363,25.996 c 0,0 -13.72,1.926 26.73,1.926" style="fill:#ffffff;fill-opacity:1;fill-rule:evenodd;stroke:none" id="path84"></path>
            <path d="m 876.59,411.914 4.82,-45.73 c -19.738,6.738 -34.898,4.812 -58.012,-8.907 l -32.738,30.575 c 26.723,17.804 62.106,28.882 85.93,24.062" style="fill:#ffffff;fill-opacity:1;fill-rule:evenodd;stroke:none" id="path86"></path>
            <path d="m 809.676,343.555 c -14.922,-13 -17.094,-10.828 -23.102,-50.547 l -27.203,-35.387 c -17.094,22.625 -11.074,92.91 15.645,113.375 l 34.66,-27.441" style="fill:#ffffff;fill-opacity:1;fill-rule:evenodd;stroke:none" id="path88"></path>
            <path d="m 799.57,275.438 c 6.735,-28.645 19.735,-44.29 44.293,-58.012 l 12.996,-46.457 c -26.718,-4.086 -74.379,29.367 -81.843,64.265 l 24.554,40.204" style="fill:#ffffff;fill-opacity:1;fill-rule:evenodd;stroke:none" id="path90"></path>
            <path d="m 865.762,215.98 c 20.465,-2.648 30.57,0 46.941,8.188 l 38.992,-28.641 c -17.808,-13 -41.64,-24.558 -68.363,-22.39 l -17.57,42.843" style="fill:#ffffff;fill-opacity:1;fill-rule:evenodd;stroke:none" id="path92"></path>
            <path d="m 987.797,277.363 c 19.253,6.254 27.913,8.903 45.733,6.254 l 18.54,-38.269 c -11.08,0 -13.73,0 -20.47,-2.649 l -43.803,34.664" style="fill:#ffffff;fill-opacity:1;fill-rule:evenodd;stroke:none" id="path94"></path>
            <path d="m 1060.25,288.438 c 24.55,0 59.94,-17.817 87.86,-34.903 l -6.02,-42.367 c -24.55,15.887 -44.29,37.551 -66.2,34.18 l -15.64,43.09" style="fill:#ffffff;fill-opacity:1;fill-rule:evenodd;stroke:none" id="path96"></path>
            <path d="m 1161.83,195.527 8.9,47.172 c 28.65,-20.465 30.57,-18.531 53.2,-47.172 l -13.73,-46.461 c -17.57,24.071 -25.75,35.622 -48.37,46.461" style="fill:#ffffff;fill-opacity:1;fill-rule:evenodd;stroke:none" id="path98"></path>
            <path d="m 1274.48,144.492 -32.74,-35.621 -15.17,24.551 15.17,47.172 32.74,-36.102" style="fill:#ffffff;fill-opacity:1;fill-rule:evenodd;stroke:none" id="path100"></path>
            <path d="m 1292.77,118.496 -33.46,-33.4608 -8.67,10.8359 31.3,35.6249 10.83,-13" style="fill:#ffffff;fill-opacity:1;fill-rule:evenodd;stroke:none" id="path102"></path>
            <path d="m 833.75,350.531 c 20.461,-11.066 58.488,-19.976 78.953,-15.883 l 32.735,-29.843 c -31.29,-11.797 -109.043,-4.817 -133.59,8.902 l 21.902,36.824" style="fill:#ffffff;fill-opacity:1;fill-rule:evenodd;stroke:none" id="path104"></path>
            <path d="m 930.516,344.277 c 19.734,16.368 47.894,35.383 72.444,50.551 l 30.57,-35.629 c -26.48,-11.551 -50.55,-26.472 -68.12,-43.566 l -34.894,28.644" style="fill:#ffffff;fill-opacity:1;fill-rule:evenodd;stroke:none" id="path106"></path>
            <path d="m 1056.16,363.293 -28.64,44.531 c 30.56,14.926 81.11,6.739 112.4,-8.183 l -42.12,-33.457 c -19.98,4.812 -26.72,4.812 -41.64,-2.891" style="fill:#ffffff;fill-opacity:1;fill-rule:evenodd;stroke:none" id="path108"></path>
            <path d="m 1192.63,328.633 c 6.75,-23.828 6.75,-45.016 -6.25,-81.84 l -49.11,23.828 c 6.74,10.832 6.74,22.387 4.82,31.293 l 50.54,26.719" style="fill:#ffffff;fill-opacity:1;fill-rule:evenodd;stroke:none" id="path110"></path>
            <path d="m 1144.01,189.508 c -26.47,-11.074 -66.19,-11.074 -91.94,-6.981 v 39.707 c 19.01,-6.254 34.66,-6.254 53.19,1.934 l 38.75,-34.66" style="fill:#ffffff;fill-opacity:1;fill-rule:evenodd;stroke:none" id="path112"></path>
            <path d="m 1025.34,227.055 -2.64,-42.367 c -36.829,4.82 -71.005,28.644 -92.907,50.546 l 35.617,35.387 c 20.461,-19.019 32.738,-35.387 59.93,-43.566" style="fill:#ffffff;fill-opacity:1;fill-rule:evenodd;stroke:none" id="path114"></path>
            <path d="m 947.602,281.453 -34.899,-38.754 c -23.113,2.649 -31.293,-2.886 -55.844,-13.722 l -33.461,33.464 c 29.368,21.176 75.102,30.567 124.204,19.012" style="fill:#ffffff;fill-opacity:1;fill-rule:evenodd;stroke:none" id="path116"></path>
            <path d="m 763.941,215.98 28.641,-35.386 c -24.547,-15.645 -39.469,-36.102 -48.375,-57.285 l -36.105,34.66 c 11.55,24.558 29.367,44.289 55.839,58.011" style="fill:#ffffff;fill-opacity:1;fill-rule:evenodd;stroke:none" id="path118"></path>
            <path d="m 734.098,108.871 -11.551,-20.4647 -40.442,38.2697 15.645,15.648 36.348,-33.453" style="fill:#ffffff;fill-opacity:1;fill-rule:evenodd;stroke:none" id="path120"></path>
            <path d="m 1176.75,658.156 c -55.12,1.446 -96.04,85.215 -107.12,141.301 l 63.55,13.477 c 12.28,-45.016 43.09,-69.563 66.92,-76.301 24.55,-5.539 38.75,0 53.92,8.18 6.02,-40.196 -23.35,-81.118 -77.27,-86.657" style="fill:#ffffff;fill-opacity:1;fill-rule:evenodd;stroke:none" id="path122"></path>
            <path d="m 759.855,667.07 c -54.402,4.082 -81.843,45.735 -77.027,86.653 16.367,-8.91 30.09,-14.446 54.641,-8.91 24.551,6.261 55.84,32.011 65.469,75.824 l 62.824,-12.274 C 856.137,751.074 813.77,667.07 759.855,667.07" style="fill:#ffffff;fill-opacity:1;fill-rule:evenodd;stroke:none" id="path124"></path>
            <path d="m 917.52,556.578 c -156.223,-132.387 -221.696,49.11 -222.418,51.031 105.187,-88.578 154.293,-71.484 180.777,-14.921 -24.559,23.828 -40.93,44.289 -46.223,58.011 12.758,24.551 46.934,94.836 59.934,155.492 l 61.383,-1.437 10.832,-177.402 c 2.16,0 6.976,-0.489 7.699,0.722 l 19.016,174.031 58.73,2.649 c 1.93,-10.113 30.09,-129.504 55.84,-159.598 -12.27,-19.73 -26.48,-35.375 -41.64,-49.097 26,-58.735 75.1,-79.2 181.5,11.55 -0.49,-1.921 -67.41,-186.785 -225.07,-47.66 -18.532,-12.996 -36.099,-24.551 -56.075,-36.824 -16.367,10.828 -31.289,22.379 -44.285,33.453" style="fill:#ffffff;fill-opacity:1;fill-rule:evenodd;stroke:none" id="path128"></path>
            <path d="m 1147.63,843.023 c -9.64,-4.816 -25.28,-6.019 -45.74,-10.109 -34.18,-6.262 -83.28,-8.906 -136.003,-8.906 -48.367,0 -95.313,2.644 -128.043,6.742 -25.274,3.371 -43.09,6.254 -53.442,12.273 -27.918,-9.386 -60.656,-21.902 -96.039,-37.554 -197.136,-87.856 -329.527,-8.184 -240.949,229.391 -177.402,212.06 19.738,388.26 285.961,203.87 -322.066,352.88 -11.551,538.47 229.156,334.34 240.939,205.57 551.449,21.91 229.379,-331.44 265.98,184.14 463.85,7.45 285.72,-204.12 88.1,-238.053 -42.84,-317.248 -241.43,-230.596 -33.45,14.922 -62.09,26.723 -88.57,36.109 z m -19.99,5.536 c -117.22,34.179 -164.394,11.558 -165.109,11.558 l -0.726,-2.656 c -0.485,0 -45.008,23.109 -158.145,-9.625 8.188,-4.09 24.555,-4.09 49.828,-6.738 29.367,-4.094 68.84,-5.539 112.399,-5.539 43.813,0 87.383,1.445 116.743,5.539 22.63,2.648 38.27,2.648 45.01,7.461 m -100.48,30.69 h -60.176 l -4.57,471.54 -8.191,1.44 -25.266,-473.461 -58.012,0.481 c -3.367,20.699 -8.18,41.16 -9.625,60.894 -8.18,36.829 -23.109,74.376 -36.109,109.036 -31.531,69.09 -57.285,181.5 -31.531,250.57 24.55,68.12 59.46,96.05 79.914,113.14 19.019,17.81 62.828,43.81 77.742,74.38 2.887,0 7.461,0 8.183,0 6.981,-23.11 64.271,-64.75 81.361,-76.31 19.74,-13.72 69.56,-67.64 83.04,-112.64 24.55,-93.4 -6.02,-163.69 -45.73,-249.14 -12.76,-29.37 -19.74,-52.47 -30.57,-83.286 -1.45,-9.386 -6.74,-23.101 -7.46,-34.656 -5.54,-17.09 -5.54,-34.176 -8.18,-47.894 -1.45,-4.094 -4.82,-4.094 -4.82,-4.094 m 259.33,-1.636 c 11.56,27.195 13.48,67.386 -29.36,91.457 -26,13.486 -56.81,12.996 -80.64,-3.61 -27.92,-22.386 -42.84,-52.461 -52.47,-86.644 l -72.22,2.887 c 0,17.812 4.1,38.273 7.47,51.75 6.74,40.914 40.92,130.463 63.3,162.473 25.28,38.27 52.72,77.03 132.39,88.1 46.46,4.58 114.09,-12.28 143.94,-52 30.09,-40.19 40.93,-81.84 33.47,-137.2 -13.49,-55.116 -71.01,-130.936 -145.88,-117.213 z m 34.67,130.933 l 4.81,36.83 39.47,8.91 -34.66,16.36 6.02,37.56 -26.47,-27.21 -34.91,14.93 17.82,-34.18 -26,-28.64 38.27,7.46 15.65,-32.02 m -674.25,-129.194 c -73.656,-14.926 -131.656,62.82 -145.14,117.936 -6.981,55.36 3.367,95.56 33.937,136.48 29.368,40.44 96.282,56.81 142.743,51.99 78.464,-10.34 107.109,-52.71 132.867,-88.09 23.347,-31.29 56.808,-120.839 62.828,-162.953 2.887,-13.722 6.254,-32.738 6.254,-53.437 h -60.176 c -11.551,32.973 -27.922,63.543 -54.403,86.168 -23.347,16.362 -54.64,17.082 -79.91,4.086 -43.09,-24.071 -40.195,-66.184 -30.094,-92.18 z m -35.375,130.216 l 17.082,33.46 38.758,-7.46 -26.472,27.91 16.359,34.19 -32.016,-14.93 -26.711,25.75 4.086,-36.82 -33.453,-16.37 38.274,-8.9 4.093,-36.83" style="fill:#ffffff;fill-opacity:1;fill-rule:evenodd;stroke:none"></path>
        </g>
    </g>
</svg>